<?xml version="1.0" encoding="iso-8859-1"?>
<!-- Generator: Adobe Illustrator 19.0.0, SVG Export Plug-In . SVG Version: 6.00 Build 0)  -->
<svg version="1.1" id="Capa_1" xmlns="http://www.w3.org/2000/svg" xmlns:xlink="http://www.w3.org/1999/xlink" x="0px" y="0px"
	 viewBox="0 0 512 512" style="enable-background:new 0 0 512 512;" xml:space="preserve">
<path style="fill:#FFAB15;" d="M407,512H105C47.103,512,0,464.897,0,407V105C0,47.103,47.103,0,105,0h302
	c57.897,0,105,47.103,105,105v302C512,464.897,464.897,512,407,512z"/>
<path style="fill:#FF9400;" d="M407,0H256v512h151c57.897,0,105-47.103,105-105V105C512,47.103,464.897,0,407,0z"/>
<path style="fill:#FFFFFF;" d="M171,406h-30v-50h30V406z M346,321c-34.273,0-65.664,12.323-90,32.77
	C231.664,333.323,200.273,321,166,321c-11.553,0-22.775,1.409-33.514,4.048c10.662-19.926,26.021-36.947,44.573-49.644
	l78.963,34.813l78.828-34.877c18.594,12.703,33.986,29.749,44.665,49.708C368.775,322.409,357.553,321,346,321z M256,277.421
	l-62.409-27.514l56.232-24.791c1.862,0.573,3.838,0.884,5.888,0.884c11.046,0,20-8.954,20-20s-8.954-20-20-20
	c-8.106,0-15.07,4.831-18.211,11.763l-81.092,35.751L94,206l162-71.421L417.421,206L256,277.421z"/>
<g>
	<path style="fill:#F2F2F2;" d="M255.711,186c11.046,0,20,8.954,20,20s-8.954,20-20,20v51.294l0.289,0.127L417.421,206L256,134.579
		l-0.289,0.127V186z"/>
	<path style="fill:#F2F2F2;" d="M334.849,275.34l-78.828,34.877l-0.311-0.137v43.452c0.096,0.08,0.194,0.157,0.289,0.238
		c24.336-20.447,55.727-32.77,90-32.77c11.553,0,22.775,1.409,33.514,4.048C368.835,305.089,353.443,288.043,334.849,275.34z"/>
</g>
<g>
</g>
<g>
</g>
<g>
</g>
<g>
</g>
<g>
</g>
<g>
</g>
<g>
</g>
<g>
</g>
<g>
</g>
<g>
</g>
<g>
</g>
<g>
</g>
<g>
</g>
<g>
</g>
<g>
</g>
</svg>
